<?xml version="1.0" standalone="no"?>
<!DOCTYPE svg PUBLIC "-//W3C//DTD SVG 20010904//EN"
 "http://www.w3.org/TR/2001/REC-SVG-20010904/DTD/svg10.dtd">
<svg version="1.0" xmlns="http://www.w3.org/2000/svg"
 width="700.000000pt" height="700.000000pt" viewBox="0 0 700.000000 700.000000"
 preserveAspectRatio="xMidYMid meet">
<metadata>
Created by potrace 1.11, written by Peter Selinger 2001-2013
</metadata>
<g transform="translate(0.000000,700.000000) scale(0.100000,-0.100000)"
fill="#000000" stroke="none">
<path d="M3129 6826 c-2 -2 -51 -6 -109 -10 -142 -8 -180 -13 -365 -46 -520
-95 -1016 -320 -1421 -645 -130 -104 -353 -326 -447 -445 -351 -440 -541 -902
-603 -1460 -19 -172 -7 -467 25 -622 7 -30 14 -68 17 -84 3 -16 20 -87 39
-159 93 -356 275 -763 478 -1070 75 -113 97 -142 264 -356 88 -112 198 -256
245 -319 349 -471 465 -777 494 -1310 3 -63 7 -117 9 -120 2 -3 356 -5 787 -5
l783 0 -1 110 c-1 107 -12 315 -19 358 -2 12 -6 49 -10 82 -19 200 -93 529
-161 711 -56 154 -174 387 -262 519 -108 162 -200 274 -371 454 -322 339 -452
494 -612 735 -142 213 -228 394 -284 601 -24 84 -29 326 -10 425 75 392 316
741 642 932 386 227 862 183 1314 -121 132 -88 247 -194 278 -255 37 -75 19
-135 -58 -187 -62 -42 -168 -156 -205 -218 -55 -95 -70 -157 -63 -276 17 -315
229 -660 607 -985 41 -36 77 -68 80 -71 26 -28 282 -211 415 -295 140 -89 203
-124 411 -228 184 -92 263 -126 351 -151 211 -62 470 -50 677 31 21 8 40 13
42 12 1 -2 6 -26 9 -53 3 -28 8 -64 10 -81 9 -65 18 -327 18 -489 -1 -258 -37
-368 -154 -485 -74 -72 -211 -144 -316 -165 -90 -18 -149 -26 -238 -31 -72 -4
-107 -11 -125 -23 -51 -37 -52 -108 0 -139 58 -36 324 -7 502 54 117 39 256
124 311 188 17 21 17 21 13 -7 -23 -141 -117 -277 -249 -361 -57 -37 -134 -66
-172 -66 -63 0 -103 -50 -90 -110 21 -97 185 -81 365 36 135 87 231 206 288
359 40 106 42 144 38 650 -3 270 -7 513 -10 540 -3 28 -8 75 -12 105 -12 113
-13 125 -18 145 -4 16 8 28 57 60 78 50 239 209 298 295 110 160 186 358 207
544 12 103 1 801 -12 825 -2 3 -7 51 -10 106 -6 87 -19 190 -41 340 -14 94
-59 278 -93 380 -51 156 -168 385 -240 471 -138 165 -318 221 -561 175 -52
-10 -114 -17 -137 -15 -59 5 -130 52 -224 148 -111 114 -279 278 -330 322 -25
22 -47 41 -50 44 -18 20 -171 139 -250 195 -390 276 -830 445 -1290 496 -97
10 -443 22 -451 15z"/>
</g>
</svg>
