<?xml version="1.0" standalone="no"?>
<!DOCTYPE svg PUBLIC "-//W3C//DTD SVG 20010904//EN"
 "http://www.w3.org/TR/2001/REC-SVG-20010904/DTD/svg10.dtd">
<svg version="1.0" xmlns="http://www.w3.org/2000/svg"
 width="80.000000pt" height="80.000000pt" viewBox="0 0 80.000000 80.000000"
 preserveAspectRatio="xMidYMid meet">
<metadata>
Created by potrace 1.11, written by Peter Selinger 2001-2013
</metadata>
<g transform="translate(0.000000,80.000000) scale(0.100000,-0.100000)"
fill="#000000" stroke="none">
<path d="M263 766 c-156 -51 -254 -188 -240 -337 6 -68 41 -147 95 -216 50
-63 68 -98 77 -150 l7 -43 90 0 91 0 -6 59 c-7 80 -33 134 -105 214 -103 116
-115 193 -41 266 40 41 85 48 140 24 63 -28 76 -46 50 -72 -49 -49 -3 -136
109 -206 54 -33 73 -40 116 -40 l51 0 2 -51 c2 -46 -1 -54 -25 -73 -15 -12
-38 -21 -51 -21 -14 0 -21 -4 -18 -10 9 -14 35 -12 67 4 16 8 28 11 28 7 0
-12 -35 -41 -48 -41 -7 0 -12 -5 -12 -11 0 -16 42 0 63 24 15 16 18 36 16 102
-1 73 1 85 20 104 33 33 42 68 40 146 -4 129 -45 210 -103 199 -18 -3 -36 6
-68 36 -76 69 -132 93 -223 97 -49 2 -96 -3 -122 -11z"/>
</g>
</svg>
